HIERARCHY
ROOT Hips
{
  OFFSET 13.6774 106.653 -34.4427
  CHANNELS 6 Xposition Yposition Zposition Zrotation Xrotation Yrotation
  JOINT ToSpine
  {
    OFFSET -2.69724 7.43032 -0.144315
    CHANNELS 3 Zrotation Xrotation Yrotation
    JOINT Spine
    {
      OFFSET -0.0310711 10.7595 1.96963
      CHANNELS 3 Zrotation Xrotation Yrotation
      JOINT Spine1
      {
        OFFSET 19.9056 3.91189 0.764692
        CHANNELS 3 Zrotation Xrotation Yrotation
        JOINT Neck
        {
          OFFSET 25.9749 7.03908 -0.130764
          CHANNELS 3 Zrotation Xrotation Yrotation
          JOINT Head
          {
            OFFSET 9.52751 0.295786 -0.907742
            CHANNELS 3 Zrotation Xrotation Yrotation
            End Site
            {
              OFFSET 16.4037 0.713936 2.7358
            }
          }
        }
        JOINT LeftShoulder
        {
          OFFSET 17.7449 4.33886 11.7777
          CHANNELS 3 Zrotation Xrotation Yrotation
          JOINT LeftArm
          {
            OFFSET 0.911315 1.27913 9.80584
            CHANNELS 3 Zrotation Xrotation Yrotation
            JOINT LeftForeArm
            {
              OFFSET 28.6126 1.18197 -3.53199
              CHANNELS 3 Zrotation Xrotation Yrotation
              JOINT LeftHand
              {
                OFFSET 27.5088 0.0218783 0.327423
                CHANNELS 3 Zrotation Xrotation Yrotation
                End Site
                {
                  OFFSET 18.6038 -0.000155887 0.382096
                }
              }
            }
          }
        }
        JOINT RightShoulder
        {
          OFFSET 17.1009 2.89543 -12.2328
          CHANNELS 3 Zrotation Xrotation Yrotation
          JOINT RightArm
          {
            OFFSET 1.4228 0.178766 -10.211
            CHANNELS 3 Zrotation Xrotation Yrotation
            JOINT RightForeArm
            {
              OFFSET 28.733 1.87905 2.64907
              CHANNELS 3 Zrotation Xrotation Yrotation
              JOINT RightHand
              {
                OFFSET 27.4588 0.290562 -0.101845
                CHANNELS 3 Zrotation Xrotation Yrotation
                End Site
                {
                  OFFSET 17.8396 -0.255518 -0.000602873
                }
              }
            }
          }
        }
      }
    }
  }
  JOINT LeftUpLeg
  {
    OFFSET -5.61296 -2.22332 -10.2353
    CHANNELS 3 Zrotation Xrotation Yrotation
    JOINT LeftLeg
    {
      OFFSET 2.56703 -44.7417 -7.93097
      CHANNELS 3 Zrotation Xrotation Yrotation
      JOINT LeftFoot
      {
        OFFSET 3.16933 -46.5642 -3.96578
        CHANNELS 3 Zrotation Xrotation Yrotation
        JOINT LeftToeBase
        {
          OFFSET 0.346054 -6.02161 12.8035
          CHANNELS 3 Zrotation Xrotation Yrotation
          End Site
          {
            OFFSET 0.134235 -1.35082 5.13018
          }
        }
      }
    }
  }
  JOINT RightUpLeg
  {
    OFFSET -5.7928 -1.72406 10.6446
    CHANNELS 3 Zrotation Xrotation Yrotation
    JOINT RightLeg
    {
      OFFSET -2.57161 -44.7178 -7.85259
      CHANNELS 3 Zrotation Xrotation Yrotation
      JOINT RightFoot
      {
        OFFSET -3.10148 -46.5936 -4.03391
        CHANNELS 3 Zrotation Xrotation Yrotation
        JOINT RightToeBase
        {
          OFFSET -0.0828122 -6.13587 12.8035
          CHANNELS 3 Zrotation Xrotation Yrotation
          End Site
          {
            OFFSET -0.131328 -1.35082 5.13018
          }
        }
      }
    }
  }
}
MOTION
Frames: 17
Frame Time: 0.03333333333333333
0.0000 93.1000 0.0000 -60.9734 -11.8617 122.8736 -71.0001 -0.1341 87.9837 113.9354 64.8937 -26.8278 -9.5877 20.7656 -8.5660 -155.1564 3.8441 -143.3458 -151.2316 40.8702 -176.2160 -0.2477 -13.7327 -38.1978 -120.0000 7.2578 -55.7217 -5.8288 -7.8196 -37.4107 0.7724 -1.0641 -3.3134 -1.6083 7.2451 27.2254 -54.9355 -27.3998 96.9085 -19.2971 -10.4446 114.3704 0.0803 0.2019 0.1603 -22.2726 35.7531 69.1000 -59.9653 83.1194 27.1967 -3.3426 -17.7251 -1.6001 17.5460 -31.0115 15.7508 -8.5970 -37.1188 119.2426 -4.1489 33.1752 -6.9734 -7.6828 -11.6330 0.4992 2.3835 0.2784 -18.1886 
0.0000 93.1000 0.0000 -61.9634 -11.9519 125.8276 -70.9995 -0.1128 87.9863 121.2058 64.5014 -33.1649 -10.1667 22.0906 -9.2798 -154.1005 4.8727 -144.4894 -149.1300 41.2642 -178.4077 -0.6564 -14.0679 -38.1577 -120.8840 6.7009 -57.7376 -6.0140 -6.9227 -40.0376 0.4506 -1.0364 -2.8671 -2.0232 8.1442 25.7969 -54.9278 -24.6252 104.8718 -16.1657 -7.5224 112.7911 0.1947 0.1835 0.2015 -11.6014 34.1942 71.8918 -145.3679 78.3313 112.6208 -3.2868 -17.0662 -1.6106 18.3886 -30.1561 15.7667 -9.7044 -36.9195 112.0624 -3.0912 34.0588 -4.2196 -8.4889 -12.0582 0.5235 1.7734 -1.1313 -18.0775 
0.0000 93.1000 0.0000 -62.2055 -12.1264 129.0688 -71.0041 0.1593 87.9880 123.1710 64.9980 -35.5847 -10.4899 22.9751 -9.4635 -153.2300 5.7184 -145.4501 -149.1195 42.2869 -177.2061 -0.4722 -14.6969 -38.8487 -122.0371 6.2236 -58.7563 -6.2167 -6.3569 -43.9252 0.2042 -0.8149 -2.8951 -2.0085 8.3718 25.9632 -55.1862 -22.5107 112.0663 -10.9939 -4.9843 110.5851 -0.1101 -0.0381 0.0673 -4.1104 32.2375 80.2273 -160.6392 70.3517 124.8482 -3.7524 -14.9396 -1.8501 19.4040 -31.9470 20.9906 -10.8478 -37.5862 106.4485 -2.1459 34.1489 -3.1395 -9.4586 -11.6681 1.1846 1.7979 -2.3729 -17.2977 
0.0000 93.1000 0.0000 -60.8362 -12.0924 132.9998 -71.0075 -0.3759 87.9904 124.2503 65.4168 -35.5758 -10.4625 24.2002 -10.6375 -153.1337 6.0252 -145.4559 -151.4522 42.0612 -176.2185 -0.3040 -15.0605 -40.0324 -122.9119 5.1691 -58.8480 -5.9729 -5.5886 -48.1938 0.1921 -1.2662 -2.2945 -1.9593 8.4293 25.2850 -54.6253 -20.0356 119.9996 -5.5747 -2.4958 107.2349 0.1435 0.4272 0.3213 -0.1559 29.1313 90.5611 -162.6356 66.2629 123.8204 -4.7678 -13.2777 -1.5763 20.2837 -34.1038 24.3538 -14.2297 -37.0523 99.2456 -1.2557 34.2780 -0.1242 -9.6396 -11.8406 1.2006 2.9564 -4.3857 -21.1638 
0.0000 93.1000 0.0000 -61.0469 -10.2509 138.2933 -71.0077 -0.0618 87.9868 129.1978 64.8229 -37.1917 -10.0607 25.2335 -11.5830 -152.3194 6.8599 -146.2205 -151.1309 42.0754 -175.5473 -0.1619 -14.8917 -40.3056 -124.0965 5.0811 -57.6115 -5.9165 -5.1036 -54.1303 0.3982 -0.9539 -1.7899 -1.9084 9.1106 24.0952 -54.2710 -17.9706 126.8391 -2.0343 -0.9714 103.9540 0.0495 0.0998 0.0173 0.1052 25.8414 101.0036 -160.9140 68.1025 119.4105 -6.5173 -10.1726 -1.1434 20.7380 -34.2604 23.0236 -19.7254 -36.0184 90.1774 0.0143 32.1749 0.8155 -9.7584 -12.2626 1.4589 3.3344 -6.5252 -23.0982 
0.0000 93.1000 0.0000 -62.9857 -9.1377 142.1991 -71.0030 -0.2672 87.9862 134.1476 64.5853 -40.6747 -10.3031 25.9847 -11.5033 -150.3235 7.0716 -147.1694 -150.1165 42.0048 -174.3032 0.6422 -13.8862 -39.0578 -124.9679 5.7446 -55.6510 -5.0648 -3.1071 -62.0637 0.7804 -1.1436 -0.8887 -1.4570 9.9093 23.6554 -53.9853 -17.1350 131.9250 0.9668 -0.2258 102.0582 0.2369 0.4748 0.4180 -4.6761 22.0074 109.3409 -152.0326 75.3914 109.3818 -10.0895 -5.9027 -0.2932 18.7733 -32.1095 19.2362 -25.7008 -32.9621 83.7121 0.8550 33.1141 -0.0510 -9.5760 -13.2415 1.2553 3.4680 -4.9999 -23.3185 
0.0000 93.1000 0.0000 -64.2265 -8.0774 147.3654 -71.0029 -0.5711 87.9871 136.1859 64.8041 -41.3309 -10.1610 26.0488 -11.2994 -149.1389 7.3965 -148.1887 -149.1933 42.5271 -174.3347 0.8072 -13.0730 -37.7483 -124.7974 6.0894 -54.6491 -1.1825 -1.3877 -69.9948 0.7598 -1.4014 -0.0250 -1.3575 10.0513 24.2384 -53.9462 -15.9656 134.9058 2.9049 0.4158 102.7871 0.5145 0.9358 0.7547 -10.2108 18.4968 115.0314 -107.3797 83.2036 61.9089 -14.8266 0.0134 1.3372 16.3461 -30.8295 15.3041 -29.9070 -27.9293 80.9969 0.6630 35.0305 -1.7823 -9.9939 -15.0532 0.7860 3.4585 -3.5359 -22.7665 
0.0000 93.1000 0.0000 -64.9170 -8.1306 153.2398 -71.0040 -0.3971 87.9907 134.2439 66.3738 -38.4814 -8.9100 26.7679 -11.1052 -147.3168 7.1482 -151.0633 -149.1194 41.9080 -174.3963 0.4226 -12.9870 -36.1991 -124.1550 6.0388 -54.6252 2.0154 -0.0414 -76.1778 0.3458 -0.9672 0.6384 -1.2992 10.1629 22.8338 -54.8623 -17.0021 138.0096 4.3238 0.6547 103.1372 0.3572 0.6526 0.6589 -16.0642 12.6123 115.1494 -26.3598 77.2805 -22.1920 -18.9385 4.0181 2.7135 13.8664 -27.9964 11.8793 -34.0735 -23.1563 77.0615 0.7811 36.2512 -4.9232 -8.6933 -16.8236 0.4866 3.1958 -1.6162 -22.1220 
0.0000 93.1000 0.0000 -66.4577 -8.0772 158.5020 -71.0021 -0.3083 87.9927 133.2520 68.0860 -35.2568 -7.7370 27.0718 -10.3864 -146.2940 7.7529 -152.6802 -148.3254 42.3225 -175.0934 -0.2658 -13.2692 -34.8957 -122.9049 5.9622 -56.7347 5.9617 0.0310 -81.2059 0.5031 -0.7444 1.3153 -1.4537 10.1270 19.8475 -53.9071 -19.2751 140.9887 6.0117 1.6643 104.8421 0.2275 0.4649 0.4657 -23.0992 7.2064 111.5812 -11.8869 64.2330 -33.6671 -21.5132 5.1100 3.8699 11.1220 -22.2136 9.8151 -39.0471 -19.2435 72.8170 0.9470 35.2114 -7.1445 -5.3559 -16.8571 0.0178 2.4688 -0.8545 -18.1513 
0.0000 93.1000 0.0000 -67.7986 -8.2019 163.4907 -70.9973 -0.0495 87.9955 129.1333 69.1096 -31.9891 -6.1998 26.9807 -9.0073 -146.3642 7.8839 -154.7523 -149.5332 42.6778 -174.2253 0.1789 -13.1303 -33.8134 -123.0914 6.0550 -58.5726 8.8021 0.0200 -85.2103 0.6705 -0.4234 1.9239 -0.9511 9.5966 17.4577 -51.9830 -21.7917 144.0213 8.9983 2.7570 106.0521 0.2110 0.1967 0.2290 -30.7323 3.8498 109.3334 -7.0267 52.3167 -34.8350 -23.2514 6.1753 4.0528 9.3992 -20.0544 5.5361 -42.7571 -16.0862 68.0960 1.0387 36.0472 -6.2241 -2.8010 -13.4284 -0.1191 2.4035 -4.5418 -12.7858 
0.0000 93.1000 0.0000 -69.3350 -8.2793 167.6541 -70.9985 0.0281 87.9968 124.0273 69.6836 -28.2515 -4.6489 26.0290 -7.1563 -147.3082 7.2821 -155.7513 -149.5639 41.9908 -174.0120 0.2262 -12.9938 -32.2867 -124.1032 5.1503 -58.5866 9.2813 -0.1631 -88.1999 0.3919 -0.2264 2.6739 -1.0007 9.3068 18.0054 -52.1703 -22.0952 143.8383 13.0239 3.7090 108.1233 0.3208 0.0510 0.0341 -37.3854 2.8835 107.8966 -5.1710 43.0962 -31.0076 -21.9862 5.7700 3.9053 6.8392 -16.9193 3.5751 -43.8894 -12.9296 64.8655 1.0803 40.1771 -0.0859 -1.5434 -4.6533 -0.4478 2.5483 -16.1705 -8.9127 
0.0000 93.1000 0.0000 -70.0836 -8.3282 171.5824 -70.9995 0.2527 87.9959 120.2370 70.0298 -25.7165 -3.7969 24.9729 -5.5572 -145.2990 6.2228 -158.0409 -148.9356 41.0891 -174.1215 -0.0964 -13.0877 -31.0114 -125.9653 4.0733 -57.5944 8.9617 -0.3092 -90.0728 -0.1452 0.1297 3.0275 -1.2406 8.7495 19.8554 -51.8160 -21.5719 143.9760 14.2717 4.9771 108.8855 0.0541 -0.1752 -0.2912 -41.9607 3.0606 108.0635 -4.3360 36.2346 -26.1860 -20.8789 4.8988 3.6103 6.9469 -16.4239 -0.6403 -43.8216 -11.7627 64.7131 2.7776 47.1204 6.9535 2.6242 3.8617 -1.1935 1.4741 -16.3893 -8.2479 
0.0000 93.1000 0.0000 -71.2358 -7.8227 175.7464 -71.0070 -0.1697 87.9967 118.1027 69.9775 -24.3958 -3.7583 23.8720 -3.9661 -142.2886 6.0323 -161.2338 -148.0638 41.0184 -174.1447 -0.1643 -13.4499 -29.7098 -126.8967 2.2969 -59.4944 10.8450 -1.3383 -91.1993 -0.2920 -0.1391 3.3842 -1.6038 8.2375 23.0770 -51.6789 -19.9614 142.8923 13.8634 5.0770 109.0778 0.2698 0.1839 0.0940 -45.9992 4.0307 108.9266 -4.2051 34.0558 -21.0735 -18.6534 4.4718 3.3586 6.0715 -15.2678 -3.0229 -41.8108 -12.1112 67.9313 4.9522 55.2953 12.9721 6.6802 5.4053 -1.8926 1.1575 -14.5162 -16.9639 
0.0000 93.1000 0.0000 -72.2767 -9.7371 179.4332 -71.0061 0.0948 88.0070 113.1302 70.0466 -21.3474 -3.3133 23.1845 -1.8694 -140.2975 5.6900 -163.2317 -146.0230 41.0653 -175.2490 1.0294 -13.2664 -29.0224 -129.3460 2.8843 -63.5114 13.9715 -0.5404 -89.3466 0.3847 0.1908 3.1913 -1.0047 7.5632 24.7803 -51.8384 -20.9011 142.9805 13.1782 5.2762 109.7953 0.3104 -0.0455 0.3366 -47.4245 5.5707 111.2489 -4.1616 33.2557 -15.7527 -12.8222 0.9336 1.0336 3.6038 -10.6760 0.1448 -41.0296 -13.1533 73.1703 5.8253 58.4162 12.1357 4.5762 3.0315 -0.7700 2.2263 -20.2820 -23.8089 
0.0000 93.1000 0.0000 -72.1469 -11.5082 -177.2789 -71.0055 0.0293 87.9974 109.1182 70.3342 -16.9678 -3.7239 22.8369 -0.8357 -140.2649 5.3897 -165.1229 -147.2041 39.9176 -176.0990 1.0212 -13.3142 -29.1731 -131.0992 3.1546 -69.6377 16.2895 1.1706 -86.8812 1.3470 -0.3328 2.7462 -1.1869 7.3255 26.3244 -52.2482 -21.9331 146.0893 13.9926 4.8719 109.9536 0.1292 0.4550 0.2833 -47.1679 8.2672 111.5633 -3.5964 32.2514 -11.5717 -5.7764 -3.6826 -0.6536 2.9827 -7.8921 3.9765 -41.1849 -14.1814 76.9744 4.8442 56.6169 6.3051 1.0418 1.1195 -0.6956 1.6724 -23.0532 -25.4230 
0.0000 93.1000 0.0000 -71.2176 -14.3036 -174.5026 -71.0075 0.2291 87.9972 105.2343 70.6120 -14.2756 -3.7677 22.4638 0.0316 -141.3485 5.6897 -168.7439 -146.7840 40.3845 -177.8908 0.4145 -13.7675 -29.9622 -132.8253 5.1796 -75.9657 19.0802 1.8791 -84.3143 1.5467 0.0081 2.5566 -1.4091 7.0426 27.0974 -52.7742 -22.6417 147.7787 14.6849 5.0442 109.9551 -0.1396 0.0998 -0.0921 -43.8638 9.7213 107.8685 -2.9385 35.3571 -11.2543 -1.8176 -5.6033 -1.2336 1.9796 -7.6837 4.9483 -43.6859 -15.7961 78.5850 2.5492 51.5481 4.9935 -0.9052 0.8954 -0.3282 1.7248 -23.9254 -31.0209 
0.0000 93.1000 0.0000 -70.1306 -16.8635 -171.2376 -71.0107 -0.0280 87.9977 102.0976 71.1732 -12.9962 -3.8069 22.4453 0.8273 -142.3955 6.2366 -170.7384 -146.4663 41.3819 -177.8803 -0.3089 -14.2754 -30.8138 -134.9134 8.1083 -82.7881 22.4654 3.1254 -82.2682 1.0076 -0.0894 2.4027 -1.8311 6.9512 28.8293 -52.8433 -23.8862 148.9676 15.0784 5.6293 109.9570 -0.1239 0.1555 -0.0302 -39.0064 11.2150 103.5504 -4.1848 41.3312 -10.1812 0.9102 -9.6563 -1.5514 1.1786 -6.4556 5.7585 -45.8242 -18.1738 79.2605 1.7997 46.0770 3.8496 -1.9520 1.2383 -0.5654 1.8617 -21.0354 -35.0719 
